HIERARCHY
ROOT pelvis
{
  OFFSET 0 100 0
  CHANNELS 6 Xposition Yposition Zposition Zrotation Xrotation Yrotation
  JOINT pelvis_right_femur
  {
    OFFSET -10.78128 -3.44521 -0.5502486
    CHANNELS 3 Zrotation Xrotation Yrotation
    JOINT right_femur_tibia
    {
      OFFSET -0.8047443 -44.0398 -0.1307829
      CHANNELS 3 Zrotation Xrotation Yrotation
      JOINT right_tibia_foot
      {
        OFFSET 3.006224 -47.83518 -5
        CHANNELS 3 Zrotation Xrotation Yrotation
        End Site
        {
          OFFSET 0 -5 15
        }
      }
    }
  }
  JOINT pelvis_left_femur
  {
    OFFSET 10.78128 -3.44521 -0.5502486
    CHANNELS 3 Zrotation Xrotation Yrotation
    JOINT left_femur_tibia
    {
      OFFSET 0.8047443 -44.0398 -0.1307829
      CHANNELS 3 Zrotation Xrotation Yrotation
      JOINT left_tibia_foot
      {
        OFFSET -4.370144 -48.10324 -4.275266
        CHANNELS 3 Zrotation Xrotation Yrotation
        End Site
        {
          OFFSET 0 -5 15
        }
      }
    }
  }
  JOINT pelvis_spine1
  {
    OFFSET 0 6.468898 -3.129235
    CHANNELS 3 Zrotation Xrotation Yrotation
    JOINT spine1
    {
      OFFSET 0 23.15396 4.99043
      CHANNELS 3 Zrotation Xrotation Yrotation
      JOINT spine2
      {
        OFFSET 0 20.79997 -5.064912
        CHANNELS 3 Zrotation Xrotation Yrotation
        JOINT neck
        {
          OFFSET 0 14.38658 9.616178
          CHANNELS 3 Zrotation Xrotation Yrotation
          End Site
          {
            OFFSET 0 20 0
          }
        }
      }
      JOINT right_manubrium
      {
        OFFSET -5.722621 16.35077 3.967754
        CHANNELS 3 Zrotation Xrotation Yrotation
        JOINT right_clavicle
        {
          OFFSET -13.16364 1.694482 -4.693211
          CHANNELS 3 Zrotation Xrotation Yrotation
          JOINT right_humerus
          {
            OFFSET -28.5034 -0.3100689 -2.792744
            CHANNELS 3 Zrotation Xrotation Yrotation
            JOINT right_radius
            {
              OFFSET -25.15693 0.02248979 -1.271978
              CHANNELS 3 Zrotation Xrotation Yrotation
              End Site
              {
                OFFSET -15 0 0
              }
            }
          }
        }
      }
      JOINT left_manubrium
      {
        OFFSET 5.722621 16.35077 3.967754
        CHANNELS 3 Zrotation Xrotation Yrotation
        JOINT left_clavicle
        {
          OFFSET 13.16364 1.694482 -4.693211
          CHANNELS 3 Zrotation Xrotation Yrotation
          JOINT left_humerus
          {
            OFFSET 29.39168 -1.063119 -2.237045
            CHANNELS 3 Zrotation Xrotation Yrotation
            JOINT left_radius
            {
              OFFSET 24.59957 -0.9528479 0.9047498
              CHANNELS 3 Zrotation Xrotation Yrotation
              End Site
              {
                OFFSET 15 -0 -0
              }
            }
          }
        }
      }
    }
  }
}
MOTION
Frames: 17
Frame Time: 0.0416666666667
1611.941 98.38604 2404.421 3.92425 -1.243623 74.25987 3.029366 -27.51826 1.684845 -0 11.60305 -0 -1.335166 -4.456179 -7.884265 -3.965862 18.97028 -8.987322 -0 22.81876 -0 -8.762709 -18.3541 11.58072 -1.210929 0.4219966 1.734991 1.452716 8.059493 -8.161918 1.984909 22.0787 6.600019 2.415259 -18.16009 8.568052 1.743329 -12.94687 9.47975 92.00483 27.74702 -23.7335 -0 0 6.90762 -18.88431 14.19406 8.333294 7.397091 -22.45681 -3.833346 -81.17173 25.60237 2.461019 0 0 -28.58859 2.181228 9.301461 10.77512
1618.314 98.05595 2406.796 4.027548 -1.622023 74.37255 3.998787 -24.56574 2.964818 -0 12.7685 -0 -2.25597 -5.10621 -7.810719 -3.562171 17.97369 -9.405561 -0 30.92016 -0 -9.80921 -15.87503 11.75782 -0.8342796 0.456896 1.756503 1.512774 7.855802 -7.771213 2.253082 22.33385 6.323364 2.381785 -18.35998 8.655047 2.15807 -12.40117 9.272669 91.65302 28.31272 -23.20403 -0 0 6.231177 -17.39708 13.99307 7.649782 6.946567 -21.5348 -3.188796 -82.21729 26.4353 3.471693 0 0 -26.17254 2.232002 9.621198 11.0029
1624.739 98.36345 2409.228 4.927414 -2.001631 74.26216 4.643236 -19.59207 4.163483 -0 15.56871 -0 -3.134849 -5.771198 -7.735603 -3.256561 15.51566 -9.620112 -0 40.35065 -0 -10.49199 -12.93418 12.53263 -0.5610561 0.561548 2.017842 1.394488 7.921973 -7.132654 2.544102 22.81091 5.927239 2.311336 -18.281 8.621793 2.416567 -12.15639 9.189981 91.16831 28.32099 -22.1022 -0 0 5.917377 -16.37681 13.64576 7.142538 6.250605 -20.4381 -2.783518 -83.58255 26.99433 5.051259 0 0 -23.05022 2.214655 9.914705 11.17798
1631.044 99.22585 2411.658 6.548736 -2.298167 73.92191 4.862142 -13.32032 5.032672 -0 18.47787 -0 -3.73481 -6.794478 -7.652007 -3.054674 11.5532 -9.423732 -0 49.36234 -0 -10.578 -10.13304 13.88253 -0.4525846 0.7535729 2.573618 1.108643 8.278719 -6.332853 2.801076 23.44934 5.440693 2.197731 -17.88059 8.422289 2.366731 -12.36516 9.306358 90.60558 27.59541 -20.58242 -0 0 6.142374 -16.12945 13.18415 6.911364 5.498356 -19.44043 -2.731995 -84.9705 26.98873 6.815634 0 0 -20.04027 2.214335 10.10749 11.07745
1637.068 100.3824 2414.024 8.34585 -2.439365 73.36683 4.755409 -6.86846 5.521841 -0 19.94829 -0 -3.772649 -8.471298 -7.484834 -2.860588 6.24992 -8.750242 -0 55.70122 -0 -10.05963 -8.05784 15.51384 -0.5163489 0.9962888 3.438445 0.724141 8.808527 -5.52419 2.943547 24.03301 4.982955 2.071849 -17.29559 8.085154 2.052439 -13.10511 9.631023 89.88628 26.44502 -18.86534 -0 0 7.154084 -16.74282 12.77748 7.057613 4.907931 -18.72368 -2.956015 -86.18316 26.46645 8.622956 0 0 -17.90452 2.131315 10.05943 10.8591
1642.784 101.4666 2416.272 9.604508 -2.388437 72.63299 4.490059 -1.29088 5.64165 -0 19.15588 -0 -3.12228 -10.70782 -7.08662 -2.534615 0.07378402 -7.674511 -0 57.54241 -0 -9.122937 -7.046894 17.01276 -0.7007791 1.215285 4.533684 0.333948 9.320726 -4.853039 2.908869 24.31578 4.703018 1.9855 -16.77253 7.69688 1.634929 -14.32261 10.08891 88.87274 25.40975 -17.11848 -0 0 9.059176 -18.09628 12.59339 7.662645 4.633516 -18.33216 -3.251611 -87.18275 25.67206 10.54333 0 0 -16.97106 1.83199 9.669668 10.83415
1648.322 102.1514 2418.37 9.886606 -2.157227 71.78172 4.183947 2.978038 5.412859 -0 16.46781 -0 -1.953211 -12.98639 -6.311523 -1.990488 -6.34131 -6.380015 -0 54.4564 -0 -8.038201 -7.034273 18.09572 -0.9266541 1.340007 5.699748 0.002120099 9.664216 -4.374505 2.698827 24.18592 4.68182 1.980272 -16.52767 7.350455 1.265923 -15.85181 10.55901 87.49447 24.89085 -15.36248 -0 0 11.69259 -19.92519 12.64764 8.737894 4.690318 -18.16812 -3.419219 -88.08035 24.85073 12.73712 0 0 -16.92639 1.307024 8.984204 11.17641
1653.871 102.2803 2420.302 9.235717 -1.816308 70.89992 3.868438 6.348246 4.95429 -0 13.31161 -0 -0.6777307 -14.72567 -5.142079 -1.25376 -12.45967 -5.146149 -0 47.6633 -0 -7.080022 -7.563384 18.75455 -1.127488 1.337413 6.763861 -0.2618157 9.773982 -4.020421 2.394505 23.73049 4.880777 2.063346 -16.644 7.113159 1.039045 -17.47477 10.92148 85.78433 24.99587 -13.45749 -0 0 14.69239 -21.84975 12.79437 10.16844 4.943658 -17.99932 -3.329671 -89.10777 24.19962 15.37806 0 0 -16.90751 0.6519333 8.201729 11.88126
1659.579 101.8926 2422.073 8.054797 -1.475474 70.07613 3.517455 9.575567 4.484748 -0 11.34186 -0 0.2858716 -15.64414 -3.746457 -0.4660058 -17.88491 -4.272345 -0 39.27853 -0 -6.444279 -8.078092 19.17922 -1.274982 1.222158 7.594866 -0.4838079 9.649573 -3.665103 2.117303 23.16374 5.176895 2.200621 -17.04769 7.022586 0.9744459 -18.96775 11.08876 83.87138 25.54933 -11.25186 -0 0 17.64669 -23.47022 12.8464 11.71605 5.200782 -17.56872 -2.948734 -90.45893 23.82978 18.46445 0 0 -16.01812 -0.008493267 7.558626 12.81713
1665.524 101.1553 2423.712 6.824428 -1.223886 69.37354 3.099165 12.92539 4.177827 -0 11.55048 -0 0.7666121 -15.73147 -2.39947 0.1493196 -22.20276 -3.942001 -0 31.26887 -0 -6.169884 -8.295913 19.54269 -1.380355 1.042318 8.123824 -0.6900759 9.343391 -3.241297 1.957258 22.68651 5.456328 2.341193 -17.57052 7.087156 1.019707 -20.1314 11.03576 82.00332 26.20921 -8.834795 -0 0 20.17604 -24.56087 12.70791 13.11137 5.336856 -16.78734 -2.360749 -92.06221 23.69807 21.62587 0 0 -13.9796 -0.5451921 7.176454 13.74869
1671.735 100.2839 2425.265 5.899011 -1.085434 68.83216 2.603407 15.9094 4.05428 -0 14.11489 -0 0.8743008 -14.96505 -1.353749 0.3598431 -24.96593 -4.156633 -0 24.96926 -0 -6.134008 -8.295636 19.86366 -1.47761 0.8502505 8.347633 -0.8940261 8.975438 -2.791872 1.927867 22.39395 5.681204 2.456003 -18.04996 7.281846 1.096766 -20.83332 10.82095 80.52988 26.65986 -6.619287 -0 0 21.97616 -25.18019 12.40979 14.16578 5.335283 -15.81414 -1.757549 -93.54916 23.6433 24.23908 0 0 -11.29138 -0.8418152 7.011049 14.41005
1678.199 99.50184 2426.777 5.45151 -1.033976 68.4903 2.043195 17.78569 4.037213 -0 18.85756 -0 0.8261129 -13.23335 -0.7663909 0.02884674 -25.87793 -4.790114 -0 21.0331 -0 -6.145082 -8.294867 20.0396 -1.600186 0.6742591 8.314128 -1.102003 8.705814 -2.423859 1.980143 22.27521 5.876808 2.546016 -18.38855 7.555049 1.167201 -21.05399 10.55807 79.76165 26.76679 -5.107122 -0 0 22.90287 -25.55292 12.06674 14.81689 5.227448 -14.92306 -1.354351 -94.51354 23.52978 25.83461 0 0 -8.75189 -0.8623625 6.933276 14.66965
1684.865 99.02367 2428.263 5.489094 -1.031949 68.39627 1.440781 18.09933 4.076259 -0 25.5661 -0 0.7895624 -10.52549 -0.6998586 -0.8168772 -24.91534 -5.681568 -0 19.44301 -0 -6.068124 -8.432172 19.94524 -1.763843 0.5091976 8.088763 -1.310901 8.662444 -2.245172 2.043885 22.25696 6.081294 2.621446 -18.5531 7.846378 1.264507 -20.88973 10.35569 79.81017 26.61153 -4.597336 -0 0 23.03275 -25.85697 11.83677 15.10386 5.023335 -14.32518 -1.289536 -94.79407 23.35752 26.39171 0 0 -6.933509 -0.7269675 6.835302 14.67139
1691.636 99.025 2429.704 5.892773 -1.04391 68.59929 0.82639 16.7603 4.176646 -0 33.79763 -0 0.8404749 -7.084963 -1.145477 -2.007093 -22.27867 -6.684446 -0 19.63746 -0 -5.880412 -8.747813 19.49775 -1.965076 0.3353068 7.725498 -1.496889 8.894013 -2.337878 2.055659 22.25164 6.318539 2.690528 -18.55229 8.098386 1.470698 -20.49527 10.28177 80.57322 26.42445 -5.130829 -0 0 22.58143 -26.12993 11.87966 15.11559 4.712114 -14.12615 -1.593149 -94.49063 23.26895 26.22863 0 0 -6.101187 -0.6828753 6.681687 14.77923
1698.367 99.58282 2431.06 6.467214 -1.0299 69.12479 0.2560055 13.86226 4.327747 -0 42.45636 -0 0.990799 -3.423761 -2.026311 -3.298385 -18.30539 -7.668298 -0 20.72327 -0 -5.643353 -9.285418 18.6952 -2.189985 0.1497745 7.258397 -1.612318 9.357178 -2.745254 1.974138 22.19887 6.595246 2.761772 -18.41925 8.264839 1.85081 -20.00562 10.35654 81.83295 26.4609 -6.59493 -0 0 21.75333 -26.31274 12.288 14.94297 4.320094 -14.37223 -2.208557 -93.78025 23.47333 25.6504 0 0 -6.40095 -0.9615906 6.50072 15.33701
1704.903 100.6104 2432.292 6.994788 -0.9496472 69.95008 -0.1884395 9.5688 4.440373 -0 49.69223 -0 1.225023 -0.2376722 -3.193573 -4.446168 -13.42496 -8.509351 -0 21.6539 -0 -5.439092 -10.16115 17.64057 -2.419519 -0.01799965 6.708183 -1.600931 9.916621 -3.449606 1.79723 22.0872 6.895299 2.837051 -18.19799 8.326132 2.37446 -19.48784 10.54553 83.35759 26.84135 -8.789434 -0 0 20.66731 -26.33024 13.01746 14.64554 3.957064 -15.06852 -3.015607 -92.75264 24.09747 24.68027 0 0 -7.945505 -1.607593 6.347117 16.39227
1711.141 101.8447 2433.404 7.302159 -0.7876346 71.00042 -0.4358665 4.132823 4.355772 -0 53.47922 -0 1.504718 1.833154 -4.446721 -5.270268 -8.102326 -9.092587 -0 21.49749 -0 -5.312955 -11.51225 16.51458 -2.625324 -0.1223919 6.090194 -1.429499 10.38253 -4.357329 1.571714 21.94869 7.172271 2.898164 -17.93281 8.301836 2.875978 -18.94231 10.75973 84.9679 27.4256 -11.42818 -0 0 19.37158 -26.15257 13.87216 14.24082 3.794596 -16.15876 -3.858299 -91.36339 25.01867 23.04995 0 0 -10.70497 -2.383034 6.281584 17.55494
